<?xml version="1.0" encoding="utf-8"?>
<!-- Svg Vector Icons : http://www.onlinewebfonts.com/icon -->
<!DOCTYPE svg PUBLIC "-//W3C//DTD SVG 1.1//EN" "http://www.w3.org/Graphics/SVG/1.1/DTD/svg11.dtd">
<svg version="1.1" xmlns="http://www.w3.org/2000/svg" xmlns:xlink="http://www.w3.org/1999/xlink" x="0px" y="0px" viewBox="0 0 1000 1000" enable-background="new 0 0 1000 1000" xml:space="preserve">
<metadata> Svg Vector Icons : http://www.onlinewebfonts.com/icon </metadata>
<g><path d="M933.9,600.8c0-32.7-26.4-59.2-59-59.6H633v0H250.2v-85.8c0-16.4,13.4-29.8,29.8-29.8h441.8c16.6,0,29.8,13.2,29.8,29.8v34.1h0.1c0.2,16.3,13.5,29.5,29.9,29.5c16.5,0,29.9-13.4,29.9-29.9c0-0.5,0-1.1,0-1.6v-32.1c0-49.7-40.1-89.6-89.6-89.6H280c-49.4,0-89.6,40.1-89.6,89.6v85.8h-64.6c-32.7,0-59.7,26.7-59.7,59.6v329.6c0,32.9,26.7,59.6,59.7,59.6h748.6c32.7,0,59.7-26.7,59.7-59.6V600.8z M125.9,930.2V601.1h64.4h621.1h62.7v329.1H125.9z"/><path d="M481.9,333.5c7.4,0.9,14.7,1.4,21.8,1.4c66.3,0,114-39.4,121.5-100.3c4.4-36-3.8-70.9-24.5-103.8c-18.6-29.5-47.5-57.6-86.1-83.4c-18.3-12.3-38.5-23.9-60-34.4c-9-4.4-19.6-3.8-28,1.6c-8.4,5.4-13.3,14.8-13.1,24.8c1.2,45.3-6.8,117.6-13,168.1c-4,33.1-1.6,57.8,7.7,77.6C417,304.1,437.1,328,481.9,333.5z M457.1,214.3c4.5-37.1,10-85.6,12.4-128.2c4.5,2.8,9,5.6,13.3,8.5c31.9,21.4,55.3,43.7,69.6,66.4c13.7,21.8,19,43.5,16.2,66.5c-1.9,15.8-8.4,28.2-19.3,36.7c-11.2,8.8-27,13.5-45.5,13.5c-4.8,0-9.8-0.3-14.9-0.9C466.2,274,450.6,267.9,457.1,214.3z"/><path d="M811.2,720.7c0,16.5-13.4,29.9-29.9,29.9H217.6c-16.5,0-29.9-13.4-29.9-29.9l0,0c0-16.5,13.4-29.9,29.9-29.9h563.6C797.8,690.8,811.2,704.2,811.2,720.7L811.2,720.7z"/></g>
</svg>